<svg xmlns="http://www.w3.org/2000/svg" fill="none" viewBox="0.05 0.07 1481.07 894.93">
<path d="M1412.56 438.984C1345.95 549.89 1270.71 615.8 1205.59 650.478C1138.81 686.04 1086.51 687.088 1063.14 676.697C1060.81 675.664 1053.46 669.388 1052.21 641.342C1051.08 615.787 1055.65 581.456 1064.32 542.675C1081.56 465.522 1113.49 377.197 1138.83 320.198C1163.36 265.002 1193.38 226.993 1227.24 202.746C1260.88 178.657 1299.86 167.042 1344.48 167.042C1371.66 167.042 1415.07 181.618 1438.62 219.843C1461.28 256.614 1470.41 323.601 1412.56 438.984Z" stroke="#371B0E" stroke-width="50"/>
<path d="M235.576 0.142757C132.014 -1.96304 19.9451 45 8.44503 65.9999C-6.05481 92.4779 14.4441 327 76.9442 402.5H1179.94C1195.44 402.5 1275.45 101 1236.95 65.9999C1185.45 22.4999 1139.45 65.9999 981.945 22.4999C752.945 -22.5001 705.945 46.3049 597.445 48.4999C400.828 52.4775 367.654 2.82841 235.576 0.142757Z" fill="#FAF2E4"/>
<path d="M1160.51 524.767C1160.51 620.036 886.162 756 619.253 756C352.343 756 93.9896 620.036 93.9896 524.767L71 411H619.253H1180L1160.51 524.767Z" fill="#EFD8B6"/>
<ellipse cx="625" cy="398.5" rx="566" ry="42.5" fill="#D6BA97"/>
<path d="M977 755.5C858.5 839 792.685 880 627 880C461.315 880 404 846.5 290.5 771.5L163 631H627H1088L977 755.5Z" fill="#4D2412"/>
<ellipse cx="625.5" cy="626.5" rx="443.5" ry="32.5" fill="#A15736"/>
<path d="M1206.83 93L1229.31 93C1227.99 162.642 1220.08 213.447 1208.71 286.454C1207.91 291.614 1207.09 296.885 1206.25 302.282C1153.85 640.171 936.638 874 624.846 874C313.129 874 88.0188 624.264 38.2555 300.807C24.7611 213.095 21.4922 170.166 21.0548 93L624.846 93L1081.92 93.0001L1206.83 93Z" stroke="#371B0E" stroke-width="42"/>
<path d="M276.775 210.463L276.2 233.713C269.489 228.069 262.391 225.703 254.906 226.614C247.421 227.525 243.951 230.217 244.495 234.691C244.768 236.928 247.088 239.134 251.456 241.308C254.88 242.9 260.021 245.33 266.88 248.598C274.521 252.557 278.865 258.839 279.912 267.442C281.189 277.938 278.184 286.598 270.895 293.422C264.297 299.463 255.534 303.149 244.608 304.479C232.478 305.955 223.098 304.565 216.468 300.308L217.019 274.704C224.046 282.23 231.948 285.459 240.723 284.391C248.81 283.407 252.534 280.29 251.895 275.042C251.55 272.203 248.983 269.766 244.195 267.729C241.254 266.516 236.884 264.69 231.087 262.253C222.317 258.344 217.388 251.916 216.299 242.968C215.042 232.645 218.107 224.108 225.492 217.36C232.091 211.318 240.767 207.643 251.521 206.334C262.189 205.036 270.607 206.412 276.775 210.463Z" fill="#742500"/>
<path d="M345.695 223L344.88 241.367L326.637 243.152L325.693 266.886C325.666 267.498 325.677 268.063 325.728 268.581C326.116 272.549 328.553 274.313 333.038 273.874C337.092 273.478 341.163 271.469 345.249 267.847L344.342 286.614C338.659 290.828 331.763 293.331 323.655 294.124C309.682 295.491 302.096 290.05 300.898 277.802C300.754 276.336 300.732 274.77 300.83 273.106L301.925 245.569L293.903 246.354L294.339 236.123L328.363 204.711L327.453 224.785L345.695 223Z" fill="#742500"/>
<path d="M433.975 245.071C434.844 256.913 431.532 266.845 424.039 274.869C416.54 282.805 406.783 287.215 394.768 288.096C385.088 288.807 377.032 286.791 370.601 282.049C363.719 277.079 359.929 269.84 359.231 260.333C358.381 248.751 361.783 238.855 369.436 230.646C376.935 222.709 386.519 218.313 398.188 217.457C408.041 216.733 416.18 218.7 422.605 223.355C429.481 228.239 433.271 235.477 433.975 245.071ZM407.14 248.866C406.899 245.581 406.051 242.906 404.596 240.84C402.844 238.275 400.412 237.106 397.3 237.335C393.238 237.633 390.198 240.029 388.182 244.521C386.46 248.298 385.761 252.39 386.084 256.798C386.326 260.082 387.174 262.757 388.629 264.823C390.375 267.302 392.804 268.427 395.915 268.199C399.978 267.901 403.06 265.502 405.163 261.003C406.805 257.319 407.464 253.274 407.14 248.866Z" fill="#742500"/>
<path d="M507.749 215.323L505.961 235.061C502.444 232.279 498.132 231.011 493.024 231.255C487.571 231.517 483.111 233.509 479.645 237.232C476.175 240.869 474.573 245.458 474.838 250.998C475.037 255.153 476.535 258.335 479.33 260.544C482.208 262.662 485.811 263.618 490.14 263.41C495.161 263.17 499.721 261.476 503.822 258.33L501.905 278.074C497.008 280.912 490.794 282.511 483.263 282.872C473.481 283.34 465.398 281.254 459.016 276.615C452.093 271.567 448.403 264.282 447.947 254.759C447.67 248.959 448.655 243.272 450.904 237.698C453.24 232.12 456.57 227.362 460.893 223.424C468.464 216.64 478.092 212.969 489.779 212.409C497.397 212.044 503.387 213.015 507.749 215.323Z" fill="#742500"/>
<path d="M598.79 210.525L569.174 241.473L582.659 263.412C586.976 270.512 590.639 275.459 593.648 278.254L560.376 278.986L546.669 252.891L543.61 279.355L518.137 279.915L526.6 209.512C526.973 206.73 527.137 204.342 527.093 202.349C526.967 196.631 524.769 193.255 520.499 192.222L520.941 188.701L554.603 187.961L549.08 232.423L568.118 211.199L598.79 210.525Z" fill="#742500"/>
<path d="M676.066 260.73L673.901 275.668C669.12 278.327 663.695 279.64 657.629 279.606C650.089 279.563 645.987 276.983 645.322 271.866C640.094 276.95 633.146 279.467 624.479 279.418C619.106 279.387 614.738 277.889 611.375 274.924C608.098 271.872 606.475 267.702 606.505 262.416C606.558 253.143 610.497 246.188 618.324 241.552C624.758 237.775 632.959 235.915 642.926 235.972C644.399 235.98 645.872 236.032 647.345 236.127C647.613 234.655 647.748 233.789 647.749 233.529C647.77 229.976 644.833 228.182 638.94 228.149C630.707 228.102 622.979 230.529 615.758 235.428L618.598 216.074C627.289 211.703 637.052 209.548 647.885 209.609C664.698 209.704 673.067 216.382 672.992 229.642C672.982 231.462 672.798 233.324 672.44 235.229L669.059 258.35C669.058 258.61 669.057 258.827 669.056 259C669.044 260.993 669.992 261.995 671.899 262.006C673.025 262.012 674.414 261.587 676.066 260.73ZM645.318 249.635C644.625 249.545 643.932 249.498 643.239 249.494C640.379 249.477 637.906 250.027 635.82 251.142C633.385 252.601 632.16 254.631 632.145 257.231C632.127 260.351 633.852 261.921 637.318 261.94C640.092 261.956 642.308 260.885 643.967 258.728L645.318 249.635Z" fill="#742500"/>
<path d="M752.449 215.688L749.136 235.228C745.845 232.182 741.644 230.583 736.533 230.431C731.076 230.268 726.475 231.909 722.731 235.352C718.989 238.709 717.036 243.16 716.871 248.704C716.747 252.862 717.993 256.151 720.609 258.57C723.314 260.904 726.832 262.136 731.164 262.265C736.188 262.415 740.867 261.08 745.199 258.261L741.757 277.797C736.655 280.247 730.335 281.359 722.799 281.135C713.01 280.843 705.114 278.137 699.11 273.016C692.599 267.447 689.486 259.898 689.769 250.369C689.942 244.564 691.366 238.971 694.041 233.588C696.802 228.208 700.49 223.722 705.106 220.131C713.18 213.956 723.064 211.042 734.759 211.39C742.382 211.617 748.279 213.049 752.449 215.688Z" fill="#742500"/>
<path d="M822.723 219.307L818.975 238.769C815.753 235.65 811.589 233.958 806.483 233.691C801.03 233.407 796.394 234.945 792.574 238.304C788.758 241.576 786.706 245.982 786.417 251.521C786.201 255.676 787.373 258.991 789.934 261.468C792.587 263.862 796.077 265.173 800.404 265.398C805.424 265.66 810.131 264.43 814.525 261.708L810.647 281.163C805.492 283.497 799.15 284.469 791.62 284.076C781.84 283.566 774.006 280.685 768.118 275.431C761.733 269.718 758.789 262.101 759.285 252.581C759.588 246.782 761.136 241.222 763.93 235.9C766.811 230.582 770.598 226.18 775.293 222.693C783.502 216.699 793.449 214.006 805.134 214.615C812.75 215.012 818.613 216.576 822.723 219.307Z" fill="#742500"/>
<path d="M869.953 203.178C869.696 206.809 868.005 209.817 864.882 212.202C861.851 214.507 858.52 215.53 854.89 215.273C851.604 215.04 848.825 213.8 846.552 211.553C844.365 209.313 843.385 206.593 843.612 203.395C843.876 199.677 845.523 196.666 848.553 194.362C851.677 191.977 855.097 190.916 858.814 191.18C862.099 191.413 864.835 192.65 867.022 194.89C869.209 197.131 870.186 199.893 869.953 203.178ZM866.942 219.907L855.815 272.03C855.298 274.427 854.962 276.705 854.809 278.866C854.588 281.979 854.75 284.597 855.294 286.72L827.285 284.733L837.21 238.52C837.839 235.784 838.22 233.465 838.355 231.563C838.76 225.858 836.838 222.333 832.589 220.989L833.356 217.524L866.942 219.907Z" fill="#742500"/>
<path d="M949.682 244.333C949.482 246.49 949.094 248.804 948.517 251.275L941.702 279.758C941.141 282.056 940.761 284.284 940.561 286.441C940.281 289.462 940.391 292.039 940.889 294.174L913.447 291.633L923.225 250.891C923.399 249.95 923.522 249.091 923.594 248.314C923.914 244.863 922.304 242.973 918.766 242.645C915.055 242.302 911.588 244.026 908.365 247.818L898.301 290.231L873.448 287.93L884.377 241.811C885.064 239.089 885.495 236.779 885.671 234.881C886.191 229.271 884.427 225.757 880.381 224.338L881.222 220.891L911.254 223.672L910.381 231.685C916.393 225.975 924.232 223.568 933.897 224.463C945.547 225.542 950.809 232.165 949.682 244.333Z" fill="#742500"/>
<path d="M1038.48 266.609C1037.05 278.396 1031.89 287.505 1022.99 293.936C1014.1 300.281 1003.68 302.729 991.721 301.281C982.084 300.115 974.567 296.586 969.169 290.694C963.373 284.493 961.047 276.66 962.193 267.196C963.589 255.666 968.832 246.611 977.922 240.029C986.809 233.684 997.06 231.215 1008.68 232.621C1018.48 233.809 1026.09 237.305 1031.5 243.11C1037.31 249.226 1039.63 257.059 1038.48 266.609ZM1011.41 265.166C1011.81 261.897 1011.49 259.108 1010.46 256.801C1009.24 253.947 1007.07 252.332 1003.98 251.957C999.933 251.467 996.49 253.233 993.646 257.254C991.229 260.628 989.756 264.509 989.225 268.897C988.829 272.166 989.146 274.954 990.176 277.262C991.412 280.03 993.579 281.602 996.677 281.977C1000.72 282.467 1004.21 280.706 1007.14 276.696C1009.46 273.397 1010.88 269.554 1011.41 265.166Z" fill="#742500"/>
</svg>